<svg xmlns="http://www.w3.org/2000/svg" viewBox="0 0 100 100">
  <defs>
    <linearGradient id="gradient1" x1="0%" y1="0%" x2="100%" y2="100%">
      <stop offset="0%" style="stop-color:#4F46E5;stop-opacity:1" />
      <stop offset="50%" style="stop-color:#7C3AED;stop-opacity:1" />
      <stop offset="100%" style="stop-color:#EC4899;stop-opacity:1" />
    </linearGradient>
  </defs>
  
  <!-- Background circle -->
  <circle cx="50" cy="50" r="48" fill="url(#gradient1)" stroke="#ffffff" stroke-width="3"/>
  
  <!-- Simple flowchart design -->
  <!-- Start node -->
  <rect x="30" y="20" width="40" height="12" rx="6" fill="#ffffff" opacity="0.95"/>
  
  <!-- Decision node (diamond shape) -->
  <polygon points="50,40 65,50 50,60 35,50" fill="#ffffff" opacity="0.95"/>
  
  <!-- End nodes -->
  <rect x="15" y="70" width="25" height="10" rx="5" fill="#ffffff" opacity="0.95"/>
  <rect x="60" y="70" width="25" height="10" rx="5" fill="#ffffff" opacity="0.95"/>
  
  <!-- Connection lines -->
  <line x1="50" y1="32" x2="50" y2="40" stroke="#ffffff" stroke-width="2.5" opacity="0.9"/>
  <line x1="35" y1="50" x2="27" y2="70" stroke="#ffffff" stroke-width="2.5" opacity="0.9"/>
  <line x1="65" y1="50" x2="73" y2="70" stroke="#ffffff" stroke-width="2.5" opacity="0.9"/>
  
  <!-- Arrow heads -->
  <polygon points="50,38 48,35 52,35" fill="#ffffff" opacity="0.9"/>
  <polygon points="29,68 26,65 32,65" fill="#ffffff" opacity="0.9"/>
  <polygon points="75,68 72,65 78,65" fill="#ffffff" opacity="0.9"/>
</svg>